<?xml version="1.0" encoding="UTF-8"?><svg id="Layer_2" xmlns="http://www.w3.org/2000/svg" viewBox="0 0 112.22 112.22"><defs><style>.cls-1{fill:#e6e6e6;}.cls-2{fill:#86cac9;}</style></defs><g id="Layer_1-2"><g><circle class="cls-1" cx="56.11" cy="56.11" r="56.11"/><g><path d="M64.6,38.65c-.24-.18-.52-.31-.88-.31-1.21,0-3.17,.24-5.88,.7-2.78,.47-4.67,.91-5.65,1.33-.3,.14-.46,.42-.46,.83,0,.19,.02,.43,.08,.71,.88,4.42,1.33,9.85,1.33,16.29l-.08,31.91c0,.83,.38,1.34,1.14,1.53,.51,.14,1.63,.21,3.38,.21l7.02-.04V38.65Z"/><path d="M24.57,40.99v-9.39l12.23-2.24-1.18,11.63h10.96l-1,7.06h-10.33l-.45,18.01c0,2.7,.27,4.5,.82,5.39,.54,.89,1.54,1.34,2.99,1.34s3.38-.31,5.8-.95l.54,6.12c-3.99,3.16-7.49,4.74-10.51,4.74s-5.5-1.05-7.43-3.14c-1.93-2.1-2.9-4.84-2.9-8.23l.54-9.65-.09-13.61h-6.25l1-7.06h5.26Z"/><path class="cls-2" d="M67.73,71.08c.09-.43,.44-.76,.88-.81,3.22-.38,6.14-1.8,8.44-4.1,5.59-5.59,5.59-14.69,0-20.29-2.3-2.3-5.22-3.72-8.44-4.1-.44-.05-.79-.38-.88-.81-.09-.43,.11-.87,.49-1.09,1.75-1,3.64-1.69,5.62-2.08,1.95-.38,3.94-.44,5.91-.19,1.99,.25,3.92,.83,5.72,1.7,1.86,.9,3.56,2.11,5.04,3.59,1.77,1.77,3.14,3.84,4.08,6.14,.9,2.22,1.36,4.57,1.36,6.98,0,2.41-.46,4.76-1.36,6.98-.93,2.3-2.31,4.37-4.08,6.14-1.48,1.48-3.17,2.68-5.04,3.59-1.8,.87-3.73,1.44-5.72,1.7-1.97,.25-3.96,.19-5.91-.19-1.98-.38-3.87-1.08-5.62-2.08-.38-.22-.58-.66-.49-1.09Z"/></g></g></g></svg>